<?xml version="1.0" encoding="utf-8"?>
<!-- Generator: Adobe Illustrator 23.0.3, SVG Export Plug-In . SVG Version: 6.00 Build 0)  -->
<svg version="1.1" id="a43d747c-6876-4129-84aa-b1e8252c37ae"
	 xmlns="http://www.w3.org/2000/svg" xmlns:xlink="http://www.w3.org/1999/xlink" x="0px" y="0px" viewBox="0 0 643 447.6"
	 style="enable-background:new 0 0 643 447.6;" xml:space="preserve">
<style type="text/css">
	.st0{fill:#3F3D56;}
	.st1{fill:#E6E6E6;}
	.st2{fill:#E62343;}
	.st3{fill:none;}
	.st4{font-family:'SegoeUI-Semilight';}
	.st5{font-size:21px;}
</style>
<path class="st0" d="M613.1,87.1H29.9C13.4,87,0,73.7,0,57.1V29.9C0,13.4,13.4,0,29.9,0H613c16.6,0,30,13.4,30,29.9v27.2
	C643,73.7,629.6,87,613.1,87.1z M29.9,1.8C14.4,1.8,1.8,14.4,1.8,29.9v27.2c0,15.5,12.6,28.1,28.1,28.1H613
	c15.5,0,28.1-12.6,28.1-28.1V29.9c0-15.5-12.6-28.1-28.1-28.1C613,1.8,29.9,1.8,29.9,1.8z"/>
<path class="st1" d="M74.4,26.3h387.3c9.5,0,17.2,7.7,17.2,17.2l0,0c0,9.5-7.7,17.2-17.2,17.2H74.4c-9.5,0-17.2-7.7-17.2-17.2l0,0
	C57.1,34,64.9,26.3,74.4,26.3z"/>
<path class="st2" d="M118.2,115.1h387.3c9.5,0,17.2,7.7,17.2,17.2l0,0c0,9.5-7.7,17.2-17.2,17.2H118.2c-9.5,0-17.2-7.7-17.2-17.2
	l0,0C100.9,122.8,108.6,115.1,118.2,115.1z"/>
<path class="st1" d="M118.2,215.9h387.3c9.5,0,17.2,7.7,17.2,17.2l0,0c0,9.5-7.7,17.2-17.2,17.2H118.2c-9.5,0-17.2-7.7-17.2-17.2
	l0,0C100.9,223.6,108.6,215.9,118.2,215.9z"/>
<path class="st1" d="M118.2,335.6h387.3c9.5,0,17.2,7.7,17.2,17.2l0,0c0,9.5-7.7,17.2-17.2,17.2H118.2c-9.5,0-17.2-7.7-17.2-17.2
	l0,0C100.9,343.3,108.6,335.6,118.2,335.6z"/>
<path class="st2" d="M586.3,62.1c-0.9,1.2-2.6,1.5-3.8,0.7l-14.8-10.3c-1.2-0.9-1.5-2.6-0.7-3.8c0.9-1.2,2.6-1.5,3.8-0.7l0,0
	l14.8,10.3C586.9,59.2,587.2,60.9,586.3,62.1z"/>
<path class="st2" d="M569.5,50.4c-6.1,8.7-18.1,10.8-26.8,4.7S531.9,37,538,28.3s18.1-10.8,26.8-4.7l0,0
	C573.5,29.7,575.6,41.7,569.5,50.4z M541.9,31.1c-4.6,6.5-3,15.5,3.5,20.1s15.5,3,20.1-3.5s3-15.5-3.5-20.1S546.5,24.6,541.9,31.1z"
	/>
<path class="st0" d="M586.6,179.2H37c-0.5,0-0.9-0.4-0.9-0.9s0.4-0.9,0.9-0.9l0,0h549.6c0.5,0,0.9,0.4,0.9,0.9
	S587.1,179.2,586.6,179.2L586.6,179.2z"/>
<path class="st0" d="M593.6,288.8H44c-0.5,0-0.9-0.4-0.9-0.9s0.4-0.9,0.9-0.9h549.6c0.5,0,0.9,0.4,0.9,0.9S594.1,288.8,593.6,288.8z
	"/>
<path class="st0" d="M596.3,407.3H46.7c-0.5,0-0.9-0.4-0.9-0.9s0.4-0.9,0.9-0.9h549.6c0.5,0,0.9,0.4,0.9,0.9
	S596.8,407.3,596.3,407.3z"/>
<rect x="97" y="39" class="st3" width="355" height="17"/>
<text transform="matrix(1 0 0 1 181.2871 54.54)" class="st4 st5">data annotation jobs</text>
</svg>
