<?xml version="1.0" encoding="utf-8"?>
<!-- Generator: Adobe Illustrator 23.0.3, SVG Export Plug-In . SVG Version: 6.00 Build 0)  -->
<svg version="1.1" id="b15aa787-28cf-46ed-b363-0df1de40c89a"
	 xmlns="http://www.w3.org/2000/svg" xmlns:xlink="http://www.w3.org/1999/xlink" x="0px" y="0px" viewBox="0 0 896.7 462.3"
	 style="enable-background:new 0 0 896.7 462.3;" xml:space="preserve">
<style type="text/css">
	.st0{fill:#3F3D56;}
	.st1{fill:#F2F2F2;}
	.st2{fill:#CCCCCC;}
	.st3{fill:#A0616A;}
	.st4{fill:#692FF7;}
	.st5{fill:#2F2E41;}
	.st6{fill:#E62343;}
	.st7{fill:#FFFFFF;}
	.st8{fill:#E6E6E6;}
	.st9{fill:#FFB8B8;}
</style>
<path class="st0" d="M895.5,462.2H1.2c-0.7,0-1.2-0.5-1.2-1.2s0.5-1.2,1.2-1.2h894.3c0.7,0,1.2,0.5,1.2,1.2
	C896.7,461.6,896.1,462.2,895.5,462.2z"/>
<circle class="st1" cx="280.4" cy="51" r="6.5"/>
<circle class="st1" cx="254.6" cy="51" r="6.5"/>
<circle class="st1" cx="228.8" cy="51" r="6.5"/>
<circle class="st1" cx="203" cy="51" r="6.5"/>
<circle class="st1" cx="280.4" cy="78" r="6.5"/>
<circle class="st1" cx="254.6" cy="78" r="6.5"/>
<circle class="st1" cx="228.8" cy="78" r="6.5"/>
<circle class="st1" cx="203" cy="78" r="6.5"/>
<circle class="st1" cx="280.4" cy="105" r="6.5"/>
<circle class="st1" cx="254.6" cy="105" r="6.5"/>
<circle class="st1" cx="228.8" cy="105" r="6.5"/>
<circle class="st1" cx="203" cy="105" r="6.5"/>
<circle class="st1" cx="280.4" cy="132" r="6.5"/>
<circle class="st1" cx="254.6" cy="132" r="6.5"/>
<circle class="st1" cx="228.8" cy="132" r="6.5"/>
<circle class="st1" cx="203" cy="132" r="6.5"/>
<circle class="st1" cx="280.4" cy="159" r="6.5"/>
<circle class="st1" cx="254.6" cy="159" r="6.5"/>
<circle class="st1" cx="228.8" cy="159" r="6.5"/>
<circle class="st1" cx="203" cy="159" r="6.5"/>
<circle class="st1" cx="280.4" cy="186" r="6.5"/>
<circle class="st1" cx="254.6" cy="186" r="6.5"/>
<circle class="st1" cx="228.8" cy="186" r="6.5"/>
<circle class="st1" cx="203" cy="186" r="6.5"/>
<path class="st2" d="M223.5,362.4v2c0,6.9,5.6,12.5,12.5,12.5h90c6.9,0,12.5-5.6,12.5-12.5v-2c0-2.9-1-5.8-2.9-8
	c-0.6-0.7-1.3-1.4-2.1-2c0,0-49.5-1.1-49.5-2.5h-48C229.1,349.9,223.5,355.5,223.5,362.4z"/>
<rect x="275.3" y="376.4" class="st2" width="13" height="84"/>
<path class="st2" d="M325.3,459.9c0,1.4-19.7,0.5-44,0.5s-44,0.9-44-0.5s19.7-12.5,44-12.5C305.6,447.4,325.3,458.5,325.3,459.9z"/>
<path class="st3" d="M307.4,360.7c3.5-4.8,2.6-11.5-2.2-15c-0.5-0.4-1-0.7-1.6-1L276,250.8l-21,10.3l33.7,89.1
	c-2.3,5.5,0.3,11.8,5.8,14.1C299.1,366.2,304.4,364.7,307.4,360.7L307.4,360.7z"/>
<path class="st4" d="M282.3,266.5l-23.5,6.4c-2.6,0.7-5.2-0.8-5.9-3.4c-0.1-0.2-0.1-0.5-0.1-0.7l-2.8-24.1
	c-1.9-7.1,2.4-14.5,9.5-16.4c7.1-1.9,14.4,2.3,16.3,9.4l9.7,22.2c1.1,2.4-0.1,5.3-2.5,6.3C282.7,266.3,282.5,266.4,282.3,266.5
	L282.3,266.5z"/>
<polygon class="st3" points="313.5,450.1 325.8,450.1 331.6,418.3 313.5,418.3 "/>
<path class="st5" d="M310.4,446.1h24.1l0,0c8.5,0,15.4,6.9,15.4,15.4l0,0v0.5h-39.5V446.1z"/>
<path class="st5" d="M327.7,433.1c-0.1,0-0.3,0-0.4,0l-17-1.2c-2.5-0.2-4.3-2.4-4.1-4.9c0-0.4,0.1-0.8,0.3-1.1l22.7-51
	c0.3-0.9,0.3-1.9-0.2-2.8s-1.3-1.5-2.2-1.8c-10.7-2.8-38.1-10.2-61.8-18.9c-10.2-3.7-16.6-9.1-19-16c-3.2-9.1,1.6-17.4,1.8-17.7
	l0.2-0.3l22.3,2l24.2,2.1l53,28.4c9.2,5,13.1,16.2,8.8,25.8l-24.4,54.8C331.1,432,329.5,433,327.7,433.1z"/>
<circle class="st3" cx="274.2" cy="193.8" r="24.6"/>
<polygon class="st3" points="306.5,449.1 318.8,449.1 324.6,417.3 306.5,417.3 "/>
<path class="st5" d="M303.4,445.1h24.1l0,0c8.5,0,15.4,6.9,15.4,15.4l0,0v0.5h-39.5V445.1z"/>
<path class="st5" d="M320.7,436.1c-0.1,0-0.3,0-0.4,0l-17-1.2c-2.5-0.2-4.3-2.4-4.1-4.9c0-0.4,0.1-0.8,0.3-1.1l22.7-51
	c0.3-0.9,0.3-1.9-0.2-2.8s-1.3-1.5-2.2-1.8c-10.7-2.8-38.1-10.2-61.8-18.9c-10.2-3.7-16.6-9.1-19-16c-3.2-9.1,1.6-17.4,1.8-17.7
	l0.2-0.3l22.3,2l24.2,2.1l53,28.4c9.2,5,13.1,16.2,8.8,25.8l-24.4,54.8C324.1,435,322.5,436,320.7,436.1z"/>
<path class="st6" d="M281.7,232.3l-26-9c0,0-16.3,12.5-8.5,43.6c4.1,16.1,2.9,33-3.4,48.3c-0.8,1.9-1.6,3.7-2.6,5.5c0,0,29,35,56,9
	l-10.5-50.5C286.7,279.3,303.2,245.8,281.7,232.3z"/>
<path class="st5" d="M277.2,219.2c-3.5-5.2-6.3-12.5-2.4-17.5c3.8-4.9,11.3-4.2,17.1-6.4c8.1-3,12.8-12.5,11.3-21.1
	s-8.3-15.6-16.5-18.5s-17.3-2-25.3,1.4c-9.8,4.1-18.3,12-21.8,22.1s-1.6,22.1,5.7,29.8c7.9,8.3,20.2,10.5,31.6,10.4"/>
<path class="st5" d="M254.4,174.6c-4.4,3.6-11.1,2-15.9-1.2s-8.6-7.6-13.7-10.1c-9-4.4-19.9-1.5-28.7,3.4s-16.6,11.5-25.8,15.3
	s-21.1,4-28.1-3.2c-4.6,13.4,2.5,28.1,15.9,32.7c7.2,2.5,15.2,1.6,21.8-2.3C190,203,195.6,190,207,186.6c6.3-1.9,13.1-0.4,19.4,1.3
	s13,3.4,19.4,2s12.4-7.2,11.6-13.7L254.4,174.6z"/>
<path class="st6" d="M334.3,406c-2.6-16.9-2.6-34.1,0-51c0.3-2.1,2.1-3.6,4.2-3.6h39.9c1.3,0,2.5,0.6,3.4,1.6c0.8,1,1.1,2.4,0.8,3.7
	c-3.7,15.6-3.7,31.9,0,47.5c0.3,1.3,0,2.7-0.8,3.7s-2,1.6-3.4,1.6h-39.9C336.4,409.6,334.6,408.1,334.3,406z"/>
<path class="st7" d="M366.1,376.1h-20.9c-1.7,0-3-1.3-3-3v-1.2c0-1.7,1.3-3,3-3h20.9c1.7,0,3,1.3,3,3v1.2
	C369.1,374.8,367.8,376.1,366.1,376.1z"/>
<path class="st7" d="M366.1,388.4h-20.9c-1.7,0-3-1.3-3-3v-1.2c0-1.7,1.3-3,3-3h20.9c1.7,0,3,1.3,3,3v1.2
	C369.1,387.1,367.8,388.4,366.1,388.4z"/>
<path class="st3" d="M344.8,356.2c2.2-5.5-0.4-11.8-5.9-14c-0.6-0.2-1.2-0.4-1.8-0.6l-50.1-84l-17.7,15.2l54.9,77.8
	c-0.9,5.9,3.2,11.4,9.1,12.3C338.1,363.6,342.9,360.8,344.8,356.2L344.8,356.2z"/>
<path class="st6" d="M296.9,271.2l-21.1,12c-2.3,1.3-5.3,0.5-6.6-1.8c-0.1-0.2-0.2-0.4-0.3-0.6l-8.8-22.6
	c-3.6-6.4-1.3-14.6,5.1-18.2c6.4-3.6,14.5-1.3,18.2,5.1l14.9,19c1.6,2.1,1.3,5.1-0.8,6.8C297.3,271,297.1,271.1,296.9,271.2
	L296.9,271.2z"/>
<path class="st0" d="M522,300.7H116c-3.6,0-6.5,2.9-6.5,6.5s2.9,6.5,6.5,6.5h11.5v141.5c0,3.6,2.9,6.5,6.5,6.5s6.5-2.9,6.5-6.5v-129
	l72.9,132.1c1.8,3.1,5.8,4.2,8.9,2.4c3.1-1.8,4.2-5.8,2.4-8.9l-76.2-138.1h348v0.1l-76.1,138c-1.8,3.1-0.7,7.1,2.4,8.9
	s7.1,0.7,8.9-2.4l64.9-117.6v114.5c0,3.6,2.9,6.5,6.5,6.5s6.5-2.9,6.5-6.5v-138l1.9-3.4H522c3.6,0,6.5-2.9,6.5-6.5
	S525.6,300.7,522,300.7z"/>
<path class="st2" d="M275,296.7h79c1.9,0,3.5,1.6,3.5,3.5l0,0c0,1.9-1.6,3.5-3.5,3.5h-79c-1.9,0-3.5-1.6-3.5-3.5l0,0
	C271.5,298.3,273,296.7,275,296.7z"/>
<path class="st2" d="M407,303.7h-89c-3.6,0-6.5-2.9-6.5-6.5v-49c0-3.6,2.9-6.5,6.5-6.5h89c3.6,0,6.5,2.9,6.5,6.5v49
	C413.5,300.8,410.6,303.7,407,303.7z"/>
<circle class="st7" cx="362.5" cy="272.7" r="6"/>
<path class="st8" d="M474.9,183V7.5c0-4.2,3.4-7.5,7.5-7.5h138.7c4.2,0,7.5,3.4,7.5,7.5V183c0,4.2-3.4,7.5-7.5,7.5H482.4
	C478.3,190.5,474.9,187.2,474.9,183z M482.4,1.7c-3.2,0-5.8,2.6-5.8,5.9V183c0,3.2,2.6,5.8,5.8,5.9h138.7c3.2,0,5.8-2.6,5.8-5.9V7.5
	c0-3.2-2.6-5.8-5.8-5.9H482.4V1.7z"/>
<path class="st4" d="M559.6,80.6v-36c0-2.1,1.7-3.8,3.8-3.8h30.5c2.1,0,3.8,1.7,3.8,3.8v36c0,2.1-1.7,3.8-3.8,3.8h-30.5
	C561.2,84.4,559.6,82.7,559.6,80.6z"/>
<path class="st2" d="M500.2,97.3v-36c0-2.1,1.7-3.8,3.8-3.8h30.5c2.1,0,3.8,1.7,3.8,3.8v36c0,2.1-1.7,3.8-3.8,3.8H504
	C501.9,101.1,500.2,99.4,500.2,97.3z"/>
<path class="st6" d="M547.9,148.3v-36c0-2.1,1.7-3.8,3.8-3.8h30.5c2.1,0,3.8,1.7,3.8,3.8v36c0,2.1-1.7,3.8-3.8,3.8h-30.5
	C549.5,152,547.9,150.4,547.9,148.3z"/>
<circle class="st1" cx="780.7" cy="11.8" r="6.5"/>
<circle class="st1" cx="780.7" cy="37.6" r="6.5"/>
<circle class="st1" cx="780.7" cy="63.4" r="6.5"/>
<circle class="st1" cx="780.7" cy="89.1" r="6.5"/>
<circle class="st1" cx="753.7" cy="11.8" r="6.5"/>
<circle class="st1" cx="753.7" cy="37.6" r="6.5"/>
<circle class="st1" cx="753.7" cy="63.4" r="6.5"/>
<circle class="st1" cx="753.7" cy="89.1" r="6.5"/>
<circle class="st1" cx="726.7" cy="11.8" r="6.5"/>
<circle class="st1" cx="726.7" cy="37.6" r="6.5"/>
<circle class="st1" cx="726.7" cy="63.4" r="6.5"/>
<circle class="st1" cx="726.7" cy="89.1" r="6.5"/>
<circle class="st1" cx="699.7" cy="11.8" r="6.5"/>
<circle class="st1" cx="699.7" cy="37.6" r="6.5"/>
<circle class="st1" cx="699.7" cy="63.4" r="6.5"/>
<circle class="st1" cx="699.7" cy="89.1" r="6.5"/>
<circle class="st1" cx="672.7" cy="11.8" r="6.5"/>
<circle class="st1" cx="672.7" cy="37.6" r="6.5"/>
<circle class="st1" cx="672.7" cy="63.4" r="6.5"/>
<circle class="st1" cx="672.7" cy="89.1" r="6.5"/>
<circle class="st1" cx="645.7" cy="11.8" r="6.5"/>
<circle class="st1" cx="645.7" cy="37.6" r="6.5"/>
<circle class="st1" cx="645.7" cy="63.4" r="6.5"/>
<circle class="st1" cx="645.7" cy="89.1" r="6.5"/>
<path class="st9" d="M671.8,241.3c-2.1-5.7,0.9-12,6.6-14.1c0.4-0.1,0.8-0.3,1.2-0.4c0.5-0.1,1-0.2,1.5-0.2l24.3-42.6l-6.1-10.5
	l15.3-11.8l11.7,16.2c2.9,4,2.8,9.4-0.3,13.3l-33.4,42.7c0.1,0.3,0.2,0.7,0.3,1c1.4,5.9-2.2,11.8-8.1,13.3c-0.4,0.1-0.8,0.2-1.2,0.2
	c-0.4,0.1-0.9,0.1-1.3,0.1C677.5,248.5,673.4,245.6,671.8,241.3z"/>
<polygon class="st9" points="624.4,450.9 612.1,450.9 606.3,403.6 624.4,403.6 "/>
<path class="st5" d="M603.4,447.4H627l0,0v14.9l0,0h-38.5l0,0l0,0C588.5,454,595.1,447.4,603.4,447.4z"/>
<polygon class="st9" points="725.4,450.9 713.1,450.9 707.3,403.6 725.4,403.6 "/>
<path class="st5" d="M704.4,447.4H728l0,0v14.9l0,0h-38.5l0,0l0,0C689.5,454,696.1,447.4,704.4,447.4z"/>
<path class="st4" d="M717.9,163.9l-27.5,10.5l-6.7-18.7c-1.8-5.1,0.3-10.8,5-13.5l0,0c4.8-2.7,10.8-1.5,14.3,2.8L717.9,163.9z"/>
<path class="st5" d="M625.4,412.6l-23.1-5.3c-2.5-0.6-4.2-3-3.8-5.6c9.3-58.7,18.2-93.1,41.1-136.8c0.3-0.8,3.9-17.3,6.2-28.3
	c-0.1-2.5,1.7-4.6,4.2-5l43-6.6c0.6-0.2,1.3-0.3,2-0.3l0.4,0.1v0.4c0,0.4-0.4,0.5-0.6,0.5l-0.6,0.1c0.7,0.3,1.3,0.7,1.8,1.2
	c18.9,22.7,28.7,97,41.1,179.2c0.1,1.4-0.3,2.7-1.3,3.6c-0.9,1-2.2,1.6-3.5,1.6l-27.5,0.7c-2.5,0.1-4.7-1.7-5-4.2l-18.5-107
	c-0.3-2.2-2.4-3.7-4.5-3.3c-1.3,0.2-2.4,1-3,2.2c-14.9,30.4-28.9,56.8-42.6,109.3c-0.6,2.2-2.5,3.7-4.8,3.7
	C626.2,412.7,625.8,412.7,625.4,412.6z"/>
<path class="st4" d="M647.8,237.9c-1.2-0.8-1.9-2.1-2.1-3.5c-3.5-32.9-1.1-58.7,7.5-78.7c3.1-7,9.2-12.2,16.6-14.2l22.2-1.1l0.1,0.1
	c10.3,5,16.1,16.3,14.2,27.6c-7.2,18.9-13.1,38.5-8.6,54.3c0.4,1.3,0.2,2.8-0.5,4s-1.8,2-3.1,2.3l-42.4,10.1
	C650.5,239,649,238.7,647.8,237.9z"/>
<path class="st9" d="M638.3,190.7L595.6,157c-0.3,0.1-0.7,0.2-1,0.3c-3,0.7-6.3,0.1-8.8-1.7c-2.6-1.8-4.3-4.6-4.6-7.7
	c-0.6-5.1,2.4-9.9,7.2-11.6c5.7-2.1,12,0.9,14.1,6.6c0.1,0.4,0.3,0.8,0.4,1.2c0.1,0.5,0.2,1,0.2,1.5l42.5,24.5l10.6-6.1l11.7,15.3
	L651.3,191C647.4,193.8,642.1,193.6,638.3,190.7z"/>
<path class="st4" d="M672.9,184.1l-24.3-16.6l11.4-16.2c3.1-4.4,9-6,13.9-3.6l0,0c5,2.4,7.5,8,5.9,13.3L672.9,184.1z"/>
<circle class="st9" cx="684.7" cy="107.4" r="24.6"/>
<path class="st5" d="M675.7,103.8c-6.3,4.3-14.6,8.8-21,4.2c-4.2-3-5.6-8.6-3.9-13.5c3.1-8.8,11.6-12.7,19.7-15.7
	c10.5-3.9,22-7,32.9-4.2s20.5,13.3,18.5,24.4c-1.6,8.9-10,16.3-8.8,25.2c1.2,9,11.3,13.8,20.3,15.4s19,2.1,25.4,8.6
	c8.2,8.2,6.2,22.9-1.6,31.5s-19.4,12.6-30.7,15.2c-15,3.5-31.1,5.4-45.3-0.5s-25.3-21.7-21.1-36.5c1.7-6.3,5.8-11.5,9.8-16.7
	s8-10.5,9.5-16.8c1.3-5.3,0.3-11.4-3.2-15.3c-1.3-1.4-1.5-3.5-0.6-5.2L675.7,103.8z"/>
</svg>
